<svg width="51" height="30" viewBox="0 0 51 30" fill="none" xmlns="http://www.w3.org/2000/svg">
<path d="M39.8931 2.94281L49.3929 11.8814C50.7724 13.3236 50.6755 15.5563 49.4139 16.9321L39.9933 26.9441C38.3834 28.4649 35.9756 29.8237 33.8985 29.8159L4.30279 29.9084C2.30873 29.7872 0.736595 28.3576 0.703825 26.522L0.612185 4.56608C0.706053 2.51008 2.34432 0.852194 4.18122 0.772988L33.7773 0.763833C35.9977 0.82237 38.3684 1.53615 39.8931 2.94281ZM41.2876 12.4456C39.8159 11.1799 37.692 11.395 36.4324 12.7002C35.0911 14.2524 35.2133 16.3845 36.4527 17.584C37.9315 18.8515 40.0506 18.5908 41.3078 17.2876C42.6499 15.743 42.5198 13.6375 41.2876 12.4456Z" fill="#4051B4"/>
</svg>
