<svg width="24" height="15" viewBox="0 0 24 15" fill="none" xmlns="http://www.w3.org/2000/svg">
<path d="M23.8575 7.08375L18.9651 0.668438C18.8094 0.46296 18.5979 0.294393 18.3497 0.177763C18.1014 0.0611324 17.824 6.35329e-05 17.5422 0H1.71436C1.25968 0 0.823629 0.158035 0.502124 0.43934C0.18062 0.720644 0 1.10218 0 1.5V13.5C0 13.8978 0.18062 14.2794 0.502124 14.5607C0.823629 14.842 1.25968 15 1.71436 15H17.5422C17.8238 14.9995 18.1009 14.9384 18.3491 14.822C18.5973 14.7056 18.8088 14.5375 18.9651 14.3325L23.8543 7.91625C23.9487 7.79328 23.9994 7.64859 24 7.50043C24.0006 7.35227 23.951 7.20727 23.8575 7.08375Z" fill="#E72121"/>
</svg>
